<mxfile host="app.diagrams.net" modified="2020-08-21T05:52:30.048Z" agent="5.0 (X11; Linux x86_64) AppleWebKit/537.36 (KHTML, like Gecko) Chrome/84.0.4147.105 Safari/537.36" etag="wyy_FUz4ZluaI24sCJpR" version="13.6.4" type="github">
  <diagram id="FjNkSXWOyc5UiZwZQ72N" name="Page-1">
    <mxGraphModel dx="526" dy="841" grid="1" gridSize="10" guides="1" tooltips="1" connect="1" arrows="1" fold="1" page="1" pageScale="1" pageWidth="850" pageHeight="1100" math="0" shadow="0">
      <root>
        <mxCell id="0" />
        <mxCell id="1" parent="0" />
        <mxCell id="Q1l8rIMf0W6FxIjSYTVZ-1" value="" style="endArrow=none;dashed=1;html=1;" edge="1" parent="1">
          <mxGeometry width="50" height="50" relative="1" as="geometry">
            <mxPoint x="40" y="1080" as="sourcePoint" />
            <mxPoint x="840" y="1080" as="targetPoint" />
          </mxGeometry>
        </mxCell>
        <mxCell id="Q1l8rIMf0W6FxIjSYTVZ-2" value="" style="endArrow=none;dashed=1;html=1;" edge="1" parent="1">
          <mxGeometry width="50" height="50" relative="1" as="geometry">
            <mxPoint x="840" y="40" as="sourcePoint" />
            <mxPoint x="840" y="1080" as="targetPoint" />
          </mxGeometry>
        </mxCell>
        <mxCell id="Q1l8rIMf0W6FxIjSYTVZ-3" value="" style="endArrow=none;dashed=1;html=1;" edge="1" parent="1">
          <mxGeometry width="50" height="50" relative="1" as="geometry">
            <mxPoint x="40" y="40" as="sourcePoint" />
            <mxPoint x="40" y="1080" as="targetPoint" />
          </mxGeometry>
        </mxCell>
        <mxCell id="Q1l8rIMf0W6FxIjSYTVZ-4" value="" style="endArrow=none;dashed=1;html=1;" edge="1" parent="1">
          <mxGeometry width="50" height="50" relative="1" as="geometry">
            <mxPoint x="40" y="40" as="sourcePoint" />
            <mxPoint x="840" y="40" as="targetPoint" />
          </mxGeometry>
        </mxCell>
        <mxCell id="Q1l8rIMf0W6FxIjSYTVZ-5" value="Login" style="ellipse;whiteSpace=wrap;html=1;" vertex="1" parent="1">
          <mxGeometry x="230" y="120" width="120" height="80" as="geometry" />
        </mxCell>
        <mxCell id="Q1l8rIMf0W6FxIjSYTVZ-6" value="Display Login erro" style="ellipse;whiteSpace=wrap;html=1;" vertex="1" parent="1">
          <mxGeometry x="530" y="180" width="120" height="80" as="geometry" />
        </mxCell>
        <mxCell id="Q1l8rIMf0W6FxIjSYTVZ-7" value="verify password" style="ellipse;whiteSpace=wrap;html=1;" vertex="1" parent="1">
          <mxGeometry x="530" y="70" width="120" height="80" as="geometry" />
        </mxCell>
        <mxCell id="Q1l8rIMf0W6FxIjSYTVZ-8" value=",&amp;lt;&amp;lt;Includes&amp;gt;&amp;gt;" style="endArrow=block;endSize=16;endFill=0;html=1;entryX=0;entryY=0.5;entryDx=0;entryDy=0;exitX=0.983;exitY=0.413;exitDx=0;exitDy=0;exitPerimeter=0;" edge="1" parent="1" source="Q1l8rIMf0W6FxIjSYTVZ-5" target="Q1l8rIMf0W6FxIjSYTVZ-7">
          <mxGeometry width="160" relative="1" as="geometry">
            <mxPoint x="360" y="150" as="sourcePoint" />
            <mxPoint x="520" y="150" as="targetPoint" />
          </mxGeometry>
        </mxCell>
        <mxCell id="Q1l8rIMf0W6FxIjSYTVZ-9" value="&amp;lt;&amp;lt;Extends&amp;gt;&amp;gt;" style="endArrow=block;endSize=16;endFill=0;html=1;exitX=-0.017;exitY=0.35;exitDx=0;exitDy=0;exitPerimeter=0;" edge="1" parent="1" source="Q1l8rIMf0W6FxIjSYTVZ-6" target="Q1l8rIMf0W6FxIjSYTVZ-5">
          <mxGeometry width="160" relative="1" as="geometry">
            <mxPoint x="357.96000000000004" y="163.03999999999996" as="sourcePoint" />
            <mxPoint x="358" y="270" as="targetPoint" />
          </mxGeometry>
        </mxCell>
        <mxCell id="Q1l8rIMf0W6FxIjSYTVZ-10" value="Initiate clearance" style="ellipse;whiteSpace=wrap;html=1;" vertex="1" parent="1">
          <mxGeometry x="210" y="260" width="120" height="80" as="geometry" />
        </mxCell>
        <mxCell id="Q1l8rIMf0W6FxIjSYTVZ-11" value="View progress" style="ellipse;whiteSpace=wrap;html=1;" vertex="1" parent="1">
          <mxGeometry x="220" y="370" width="120" height="80" as="geometry" />
        </mxCell>
        <mxCell id="Q1l8rIMf0W6FxIjSYTVZ-12" value="add student" style="ellipse;whiteSpace=wrap;html=1;" vertex="1" parent="1">
          <mxGeometry x="400" y="230" width="120" height="80" as="geometry" />
        </mxCell>
        <mxCell id="Q1l8rIMf0W6FxIjSYTVZ-13" value="add staff" style="ellipse;whiteSpace=wrap;html=1;" vertex="1" parent="1">
          <mxGeometry x="425" y="330" width="120" height="80" as="geometry" />
        </mxCell>
        <mxCell id="Q1l8rIMf0W6FxIjSYTVZ-14" value="approve clearance" style="ellipse;whiteSpace=wrap;html=1;" vertex="1" parent="1">
          <mxGeometry x="420" y="610" width="120" height="80" as="geometry" />
        </mxCell>
        <mxCell id="Q1l8rIMf0W6FxIjSYTVZ-15" value="disapprove clearance" style="ellipse;whiteSpace=wrap;html=1;" vertex="1" parent="1">
          <mxGeometry x="440" y="450" width="120" height="80" as="geometry" />
        </mxCell>
        <mxCell id="Q1l8rIMf0W6FxIjSYTVZ-16" value="view student list" style="ellipse;whiteSpace=wrap;html=1;" vertex="1" parent="1">
          <mxGeometry x="520" y="660" width="120" height="80" as="geometry" />
        </mxCell>
        <mxCell id="Q1l8rIMf0W6FxIjSYTVZ-17" value="view staff&amp;nbsp; list" style="ellipse;whiteSpace=wrap;html=1;" vertex="1" parent="1">
          <mxGeometry x="390" y="700" width="120" height="80" as="geometry" />
        </mxCell>
        <mxCell id="Q1l8rIMf0W6FxIjSYTVZ-18" value="send feedback&amp;nbsp;" style="ellipse;whiteSpace=wrap;html=1;" vertex="1" parent="1">
          <mxGeometry x="480" y="760" width="120" height="80" as="geometry" />
        </mxCell>
        <mxCell id="Q1l8rIMf0W6FxIjSYTVZ-19" value="receive feedback&amp;nbsp;" style="ellipse;whiteSpace=wrap;html=1;" vertex="1" parent="1">
          <mxGeometry x="220" y="770" width="120" height="80" as="geometry" />
        </mxCell>
      </root>
    </mxGraphModel>
  </diagram>
</mxfile>
